<svg xmlns="http://www.w3.org/2000/svg" width="34.333" height="44.066" viewBox="0 0 34.333 44.066">
  <path id="Path_8" data-name="Path 8" d="M27.461,42.285c.638,0,2.685-.85,5.615-3.559,4.654-4.284,10.087-11.812,10.087-18.9a15.8,15.8,0,1,0-31.593,0C11.57,30.961,24.54,42.049,27.461,42.285Zm-.094-31.869a7.528,7.528,0,1,1-7.528,7.528A7.528,7.528,0,0,1,27.367,10.416ZM44.533,43.765c0,1.473-6.056,4.331-17.167,4.331S10.2,45.238,10.2,43.765c0-.984,2.835-2.811,9.15-3.756a1.055,1.055,0,0,0,.315-.1c2.961,2.8,5.859,4.591,7.607,4.725h.22c2.362,0,5.8-2.906,7.19-4.181.173-.157.346-.331.52-.5a1.576,1.576,0,0,0,.181.047C41.7,40.954,44.533,42.781,44.533,43.765Z" transform="translate(-10.2 -4.03)" fill="#ffffc8"/>
</svg>
