<svg xmlns="http://www.w3.org/2000/svg" width="46" height="31.846" viewBox="0 0 46 31.846">
  <path id="payment" d="M45.462,7H6.538A3.538,3.538,0,0,0,3,10.538V35.308a3.538,3.538,0,0,0,3.538,3.538H45.462A3.538,3.538,0,0,0,49,35.308V10.538A3.538,3.538,0,0,0,45.462,7ZM17.154,33.538H10.077a1.769,1.769,0,1,1,0-3.538h7.077a1.769,1.769,0,0,1,0,3.538Zm1.769-12.385a1.769,1.769,0,0,1-1.769,1.769H10.077a1.769,1.769,0,0,1-1.769-1.769V14.077a1.769,1.769,0,0,1,1.769-1.769h7.077a1.769,1.769,0,0,1,1.769,1.769Zm23,12.385H27.769a1.769,1.769,0,0,1,0-3.538H41.923a1.769,1.769,0,1,1,0,3.538Z" transform="translate(-3 -7)" fill="#ffffc8"/>
</svg>
